<svg width="77" height="19" viewBox="0 0 77 19" fill="none" xmlns="http://www.w3.org/2000/svg">
<path d="M6.056 18.288C4.68 18.288 3.48 18.08 2.456 17.664C1.448 17.248 0.688 16.68 0.176 15.96L2.168 14.112C2.648 14.64 3.208 15.056 3.848 15.36C4.504 15.648 5.248 15.792 6.08 15.792C6.784 15.792 7.336 15.688 7.736 15.48C8.136 15.256 8.336 14.92 8.336 14.472C8.336 14.12 8.2 13.88 7.928 13.752C7.656 13.608 7.28 13.496 6.8 13.416L4.808 13.104C4.248 13.024 3.728 12.904 3.248 12.744C2.768 12.568 2.352 12.336 2 12.048C1.648 11.76 1.368 11.408 1.16 10.992C0.952 10.576 0.848 10.072 0.848 9.48C0.848 8.184 1.344 7.168 2.336 6.432C3.328 5.696 4.72 5.328 6.512 5.328C7.728 5.328 8.76 5.496 9.608 5.832C10.472 6.152 11.16 6.616 11.672 7.224L9.896 9.24C9.528 8.84 9.056 8.504 8.48 8.232C7.904 7.96 7.208 7.824 6.392 7.824C5.016 7.824 4.328 8.24 4.328 9.072C4.328 9.44 4.464 9.696 4.736 9.84C5.008 9.968 5.384 10.072 5.864 10.152L7.832 10.464C8.392 10.544 8.912 10.672 9.392 10.848C9.872 11.008 10.288 11.232 10.64 11.52C11.008 11.808 11.296 12.16 11.504 12.576C11.712 12.992 11.816 13.496 11.816 14.088C11.816 15.384 11.312 16.408 10.304 17.16C9.312 17.912 7.896 18.288 6.056 18.288ZM17.4946 18.288C16.5186 18.288 15.6386 18.144 14.8546 17.856C14.0866 17.552 13.4306 17.12 12.8866 16.56C12.3586 16 11.9506 15.32 11.6626 14.52C11.3746 13.72 11.2306 12.816 11.2306 11.808C11.2306 10.8 11.3746 9.896 11.6626 9.096C11.9506 8.296 12.3586 7.616 12.8866 7.056C13.4306 6.496 14.0866 6.072 14.8546 5.784C15.6386 5.48 16.5106 5.328 17.4706 5.328C18.8306 5.328 19.9186 5.608 20.7346 6.168C21.5666 6.712 22.1986 7.44 22.6306 8.352L19.8946 9.84C19.6706 9.36 19.3746 8.96 19.0066 8.64C18.6546 8.32 18.1426 8.16 17.4706 8.16C16.6546 8.16 16.0226 8.4 15.5746 8.88C15.1426 9.344 14.9266 9.984 14.9266 10.8V12.816C14.9266 13.632 15.1426 14.28 15.5746 14.76C16.0226 15.224 16.6706 15.456 17.5186 15.456C18.2066 15.456 18.7426 15.296 19.1266 14.976C19.5266 14.656 19.8626 14.24 20.1346 13.728L22.8226 15.264C22.3746 16.176 21.7186 16.912 20.8546 17.472C20.0066 18.016 18.8866 18.288 17.4946 18.288ZM22.3572 15.24H25.2132V8.376H22.3572V5.616H28.7652V9.12H28.9332C29.0452 8.672 29.1972 8.24 29.3892 7.824C29.5972 7.392 29.8532 7.016 30.1572 6.696C30.4772 6.36 30.8612 6.096 31.3092 5.904C31.7572 5.712 32.2852 5.616 32.8932 5.616H34.0693V8.88H31.4292C30.5492 8.88 29.8852 9.144 29.4372 9.672C28.9892 10.184 28.7652 10.816 28.7652 11.568V15.24H32.8453V18H22.3572V15.24ZM43.0599 18C42.3239 18 41.7319 17.816 41.2839 17.448C40.8359 17.064 40.5719 16.52 40.4919 15.816H40.3719C40.1479 16.632 39.6999 17.248 39.0279 17.664C38.3719 18.08 37.5639 18.288 36.6039 18.288C35.4039 18.288 34.4359 17.968 33.6999 17.328C32.9799 16.672 32.6199 15.76 32.6199 14.592C32.6199 13.296 33.0919 12.336 34.0359 11.712C34.9799 11.088 36.3639 10.776 38.1879 10.776H40.1799V10.152C40.1799 9.416 40.0039 8.864 39.6519 8.496C39.3159 8.112 38.7399 7.92 37.9239 7.92C37.1719 7.92 36.5639 8.064 36.0999 8.352C35.6359 8.64 35.2359 9.016 34.8999 9.48L32.9559 7.752C33.3719 7.048 34.0199 6.472 34.8999 6.024C35.7959 5.56 36.9399 5.328 38.3319 5.328C40.0279 5.328 41.3479 5.72 42.2919 6.504C43.2519 7.272 43.7319 8.44 43.7319 10.008V15.432H45.0999V18H43.0599ZM37.9479 15.96C38.5719 15.96 39.0999 15.808 39.5319 15.504C39.9639 15.2 40.1799 14.76 40.1799 14.184V12.696H38.2839C36.8279 12.696 36.0999 13.184 36.0999 14.16V14.64C36.0999 15.072 36.2679 15.4 36.6039 15.624C36.9399 15.848 37.3879 15.96 37.9479 15.96ZM50.3225 18C49.0425 18 48.0905 17.664 47.4665 16.992C46.8425 16.32 46.5305 15.464 46.5305 14.424V8.376H43.1705V5.616H45.3545C45.8825 5.616 46.2585 5.512 46.4825 5.304C46.7065 5.096 46.8185 4.712 46.8185 4.152V1.248H50.0825V5.616H54.9065V8.376H50.0825V15.24H54.9065V18H50.3225ZM60.6571 18.288C59.6811 18.288 58.8011 18.144 58.0171 17.856C57.2491 17.552 56.5931 17.12 56.0491 16.56C55.5211 16 55.1131 15.32 54.8251 14.52C54.5371 13.72 54.3931 12.816 54.3931 11.808C54.3931 10.8 54.5371 9.896 54.8251 9.096C55.1131 8.296 55.5211 7.616 56.0491 7.056C56.5931 6.496 57.2491 6.072 58.0171 5.784C58.8011 5.48 59.6731 5.328 60.6331 5.328C61.9931 5.328 63.0811 5.608 63.8971 6.168C64.7291 6.712 65.3611 7.44 65.7931 8.352L63.0571 9.84C62.8331 9.36 62.5371 8.96 62.1691 8.64C61.8171 8.32 61.3051 8.16 60.6331 8.16C59.8171 8.16 59.1851 8.4 58.7371 8.88C58.3051 9.344 58.0891 9.984 58.0891 10.8V12.816C58.0891 13.632 58.3051 14.28 58.7371 14.76C59.1851 15.224 59.8331 15.456 60.6811 15.456C61.3691 15.456 61.9051 15.296 62.2891 14.976C62.6891 14.656 63.0251 14.24 63.2971 13.728L65.9851 15.264C65.5371 16.176 64.8811 16.912 64.0171 17.472C63.1691 18.016 62.0491 18.288 60.6571 18.288ZM65.3038 0.24H68.8558V7.872H68.9998C69.1438 7.52 69.3198 7.192 69.5278 6.888C69.7358 6.584 69.9838 6.32 70.2718 6.096C70.5758 5.856 70.9198 5.672 71.3038 5.544C71.7038 5.4 72.1518 5.328 72.6478 5.328C73.2398 5.328 73.7838 5.432 74.2798 5.64C74.7758 5.832 75.1998 6.128 75.5518 6.528C75.9038 6.928 76.1758 7.416 76.3678 7.992C76.5758 8.568 76.6798 9.232 76.6798 9.984V18H73.1278V10.464C73.1278 8.864 72.4318 8.064 71.0398 8.064C70.7678 8.064 70.4958 8.104 70.2238 8.184C69.9678 8.248 69.7358 8.36 69.5278 8.52C69.3198 8.664 69.1518 8.848 69.0238 9.072C68.9118 9.296 68.8558 9.56 68.8558 9.864V18H65.3038V0.24Z" fill="white"/>
</svg>
